<?xml version="1.0" standalone="no"?>
<!DOCTYPE svg PUBLIC "-//W3C//DTD SVG 20010904//EN"
 "http://www.w3.org/TR/2001/REC-SVG-20010904/DTD/svg10.dtd">
<svg version="1.0" xmlns="http://www.w3.org/2000/svg"
 width="260.000000pt" height="260.000000pt" viewBox="0 0 260.000000 260.000000"
 preserveAspectRatio="xMidYMid meet">
<metadata>
Created by potrace 1.11, written by Peter Selinger 2001-2013
</metadata>
<g transform="translate(0.000000,260.000000) scale(0.100000,-0.100000)"
fill="#000000" stroke="none">
<path d="M700 2293 c-60 -21 -139 -74 -171 -115 -48 -61 -66 -111 -128 -358
-34 -135 -67 -262 -72 -283 -9 -34 -13 -37 -42 -36 -113 7 -232 -78 -270 -192
-22 -66 -25 -580 -3 -598 8 -6 44 -12 80 -12 36 -1 66 -4 67 -7 1 -4 2 -55 4
-114 2 -86 7 -116 25 -152 71 -147 281 -179 391 -59 52 56 63 90 67 214 l4
116 649 1 649 0 0 -108 c0 -120 11 -157 62 -215 48 -56 102 -79 178 -79 96 0
171 46 214 131 22 43 24 62 25 174 l1 97 71 0 c49 0 75 5 81 14 4 7 7 144 6
303 -3 276 -4 292 -25 330 -49 91 -129 145 -228 153 l-62 4 -67 272 c-39 155
-80 297 -97 333 -35 72 -98 134 -179 172 l-55 26 -565 2 c-493 2 -571 0 -610
-14z m1113 -315 c10 -8 36 -94 71 -233 31 -121 56 -225 56 -232 0 -10 -136
-12 -643 -12 l-644 0 57 229 c32 126 63 237 70 245 11 13 78 15 514 15 386 0
506 -3 519 -12z m-1308 -700 c89 -47 129 -161 90 -256 -34 -79 -101 -122 -193
-122 -113 0 -197 86 -197 200 0 155 161 251 300 178z m1805 -17 c93 -73 106
-215 27 -299 -51 -55 -152 -79 -218 -54 -39 16 -95 67 -113 106 -20 41 -21
125 -3 169 20 47 89 105 134 112 21 4 43 8 48 9 24 6 93 -17 125 -43z"/>
</g>
</svg>
